<svg width="135" height="156" viewBox="0 0 135 156" fill="none" xmlns="http://www.w3.org/2000/svg">
<g clip-path="url(#clip0_547_155)">
<path d="M89.4034 155.412H6.30812C5.00997 154.963 3.59254 155.048 2.40667 154.072C0.505062 152.493 0.0208896 150.444 0.0138726 148.171C-0.00717839 143.54 0.0138726 138.901 0.0138726 134.27C0.0138726 97.4169 0.0138726 60.5567 0.0138726 23.7034C0.0138726 17.9214 2.95399 14.9602 8.71495 14.9111C10.1675 14.8971 11.627 14.9392 13.0795 14.883C14.2514 14.8339 14.8548 14.2234 14.8969 13.0516C14.9531 11.3816 14.932 9.71152 14.925 8.04148C14.9039 5.11539 16.2302 2.88398 18.4475 1.10167C19.6966 0.0912209 21.2613 0.035085 22.7349 0.028068C40.5651 -0.014034 58.3953 0 76.2255 0.014034C78.4499 0.014034 80.3374 0.694682 81.9654 2.42086C87.2492 8.01341 92.4137 13.7252 97.6484 19.3669C100.729 22.6789 103.753 26.0401 106.876 29.31C108.069 30.559 109.219 31.8431 110.3 33.1834C111.584 34.7692 112.188 36.6287 112.181 38.7268C112.152 46.3262 112.16 53.9186 112.174 61.518C112.174 64.3318 112.265 64.4371 114.91 65.251C124.973 68.3315 132.172 77.1168 134.312 87.2844C136.754 98.8975 132.565 109.002 123.864 116.594C121.24 118.889 118.166 120.496 114.819 121.499C112.258 122.264 112.181 122.306 112.174 124.924C112.167 127.351 112.209 129.772 112.16 132.2C112.061 136.916 108.419 140.55 103.704 140.656C101.978 140.698 100.259 140.67 98.5325 140.677C97.2554 140.677 96.666 141.287 96.666 142.557C96.666 144.227 96.6449 145.897 96.659 147.567C96.68 150.43 95.3889 152.62 93.2417 154.395C92.119 155.321 90.6665 154.97 89.4174 155.419L89.4034 155.412Z" fill="#54A0DE"/>
<path d="M87.2283 72.6119C84.8285 74.9977 83.0602 77.2782 81.6849 79.8464C80.5341 81.9936 79.5728 84.225 79.1026 86.6178C78.8711 87.8107 78.3658 88.1615 77.173 88.1615C68.3877 88.1124 59.6094 88.1335 50.8241 88.1335C50.3399 88.1335 49.8558 88.1124 49.3716 88.1475C47.8068 88.2598 46.7753 89.2702 46.7472 90.6736C46.7192 92.1402 47.7998 93.1927 49.4488 93.291C49.933 93.319 50.4171 93.305 50.9013 93.305C59.4691 93.305 68.0368 93.3331 76.6046 93.2769C77.9167 93.2699 78.3729 93.6278 78.4009 94.9821C78.4921 99.2624 79.7692 103.248 81.7831 107.002C82.7655 108.834 82.7795 108.827 80.6183 108.827C70.8085 108.827 61.0058 108.827 51.196 108.827C50.768 108.827 50.3329 108.827 49.9049 108.827C47.891 108.862 46.7051 109.865 46.7472 111.486C46.7893 113.037 47.9471 113.991 49.8838 113.998C59.5252 114.012 69.1736 113.998 78.8149 113.998C79.243 113.998 79.678 114.033 80.1061 113.998C81.1376 113.893 81.327 114.314 80.9551 115.205C80.6674 115.9 80.3867 116.608 80.1903 117.331C79.6289 119.408 79.9517 121.31 81.6007 122.804C83.1935 124.243 85.0881 124.496 87.0318 123.731C89.7404 122.671 92.3998 121.499 95.0593 120.32C95.8522 119.97 96.5469 119.92 97.3679 120.222C99.8098 121.12 102.336 121.668 104.939 121.745C105.929 121.773 106.237 122.152 106.223 123.106C106.181 126.018 106.237 128.93 106.195 131.835C106.167 133.674 105.213 134.593 103.388 134.684C103.01 134.705 102.638 134.691 102.259 134.691C76.4502 134.691 50.6417 134.691 24.8332 134.691C21.5211 134.691 20.8545 134.032 20.8545 130.734C20.8545 90.2526 20.8545 49.7786 20.8545 9.29752C20.8545 5.97848 21.5141 5.31888 24.8051 5.31888C40.9161 5.31888 57.0271 5.33993 73.1382 5.2838C74.7381 5.2838 75.3345 5.63465 75.2082 7.31873C75.0538 9.40979 75.0749 11.5289 75.2082 13.62C75.3064 15.2058 74.8924 15.7251 73.1873 15.7111C63.8126 15.6198 54.4379 15.6619 45.0632 15.669C39.4847 15.669 36.4112 18.7915 36.3621 24.3981C36.341 26.5944 36.4744 28.7206 37.8637 30.545C39.5478 32.7624 41.7932 33.7868 44.572 33.7868C54.3817 33.7658 64.1845 33.7868 73.9942 33.7658C75.0468 33.7658 75.7134 33.9693 76.2958 35.0148C77.7764 37.6813 80.1903 38.9513 83.2356 38.9513C90.3509 38.9584 97.4591 38.9794 104.574 38.9303C105.795 38.9233 106.258 39.211 106.244 40.5372C106.181 48.1366 106.195 55.736 106.23 63.3354C106.23 64.3809 106.02 64.8581 104.834 64.9212C101.641 65.0896 98.5467 65.8054 95.6066 67.1105C94.8277 67.4544 94.0348 67.4193 93.2278 67.4193C79.3272 67.4193 65.4265 67.4193 51.5258 67.4193C51.0978 67.4193 50.6627 67.4193 50.2347 67.4193C47.9261 67.4333 46.7051 68.3596 46.7402 70.0647C46.7753 71.7067 47.9682 72.5908 50.1856 72.5908C61.7706 72.5908 73.3557 72.5908 84.9408 72.5908H87.2213L87.2283 72.6119Z" fill="#D5E2E9"/>
<path d="M5.33994 85.3828C5.33994 65.1739 5.33994 44.9649 5.33994 24.756C5.33994 21.5562 6.0276 20.8615 9.2063 20.8615C10.9325 20.8615 12.6587 20.9247 14.3778 20.8405C15.4725 20.7843 15.8233 21.1983 15.697 22.2228C15.6479 22.6509 15.69 23.0859 15.69 23.514C15.69 59.2936 15.69 95.0803 15.69 130.86C15.69 136.916 18.6582 139.884 24.7139 139.884C46.1017 139.884 67.4895 139.898 88.8773 139.849C90.3368 139.849 90.8491 140.186 90.7368 141.694C90.5965 143.462 90.7157 145.252 90.7017 147.027C90.6807 149.329 89.7755 150.227 87.4388 150.227C75.6432 150.234 63.8406 150.227 52.0451 150.227C37.7164 150.227 23.3877 150.227 9.05193 150.227C6.09777 150.227 5.34695 149.469 5.34695 146.487C5.34695 126.116 5.34695 105.746 5.34695 85.3758L5.33994 85.3828Z" fill="#D5E2E9"/>
<path d="M85.0811 119.001C86.1968 115.921 87.123 113.233 88.1405 110.581C88.6948 109.135 88.4983 107.935 87.6423 106.637C82.3725 98.6379 81.8041 90.2386 86.4915 81.9024C91.1788 73.5522 98.687 69.6718 108.244 70.0647C119.85 70.5348 129.393 80.3236 130.074 92.2805C130.727 103.781 122.18 114.454 110.854 116.307C106.441 117.029 102.153 116.651 98.0274 114.938C96.7223 114.398 95.5785 114.447 94.3154 115.016C91.3823 116.335 88.4071 117.57 85.0811 118.994V119.001Z" fill="#FEFEFE"/>
<path d="M102.897 33.8009C97.5573 33.8009 92.6805 33.8009 87.7967 33.8009C86.2389 33.8009 84.6741 33.836 83.1163 33.7868C81.3902 33.7307 80.3727 32.7834 80.3657 31.0713C80.3376 24.0753 80.3657 17.0864 80.3657 10.0904C80.3657 10.0062 80.4569 9.92203 80.6043 9.65538C87.9581 17.6267 95.2698 25.5419 102.89 33.8009H102.897Z" fill="#ACBDC9"/>
<path d="M59.2936 20.8615C64.1424 20.8615 68.9911 20.8896 73.8399 20.8405C74.8854 20.8264 75.2503 21.1141 75.2012 22.1877C75.117 23.963 75.145 25.7454 75.1941 27.5207C75.2152 28.3557 74.9626 28.6364 74.0995 28.6364C64.1845 28.6083 54.2695 28.6364 44.3544 28.6083C42.5511 28.6083 41.6248 27.5908 41.5547 25.7594C41.5336 25.17 41.5406 24.5735 41.5547 23.9841C41.5898 21.7878 42.502 20.8756 44.7404 20.8685C49.5891 20.8545 54.4379 20.8685 59.2866 20.8685L59.2936 20.8615Z" fill="#FEFEFE"/>
<path d="M33.843 62.2618C39.5057 61.7917 41.6599 64.0231 41.6529 70.0366C41.6529 75.9169 39.618 77.8887 33.8149 77.8887C27.9136 77.8887 25.8997 75.9239 25.9278 69.9314C25.9559 64.3459 27.7592 61.7776 33.843 62.2618Z" fill="#54A0DE"/>
<path d="M41.5406 90.6035C41.5406 91.5718 41.5827 92.5401 41.5336 93.5085C41.3793 96.2732 39.3163 98.3502 36.5375 98.4625C34.7131 98.5397 32.8747 98.5327 31.0502 98.4625C28.2855 98.3502 26.1734 96.2592 26.0611 93.5085C25.984 91.6841 25.991 89.8456 26.0611 88.0212C26.1594 85.1863 28.2926 83.0812 31.1344 82.976C32.7483 82.9199 34.3623 82.9479 35.9762 82.962C39.3934 82.997 41.5056 85.1021 41.5547 88.4984C41.5687 89.2001 41.5547 89.8947 41.5547 90.5964H41.5406V90.6035Z" fill="#54A0DE"/>
<path d="M33.7798 103.662C39.6531 103.178 41.6459 105.578 41.6529 111.367C41.6599 117.31 39.6882 119.289 33.7237 119.289C27.8575 119.289 25.57 117.135 26.019 111.556C26.0892 110.7 26.019 109.837 26.0331 108.974C26.1173 105.858 28.2294 103.746 31.352 103.669C32.1589 103.648 32.9659 103.669 33.7728 103.669L33.7798 103.662Z" fill="#54A0DE"/>
<path d="M107.086 76.0151C109.128 76.0853 110.763 76.3589 112.314 77.0606C116.84 79.1166 118.166 84.2531 115.177 88.2528C114.202 89.5579 113.009 90.6526 111.746 91.663C110.244 92.8699 109.325 94.2733 109.325 96.3293C109.325 98.4134 108.399 99.1852 106.574 99.073C105.297 98.9958 104.469 98.4344 104.308 97.0521C103.95 94.0067 104.757 91.3964 107.093 89.3404C108.027 88.5264 109.03 87.7826 109.914 86.9265C110.953 85.9301 111.479 84.6671 110.967 83.2567C110.448 81.8252 109.184 81.32 107.774 81.1586C105.795 80.934 104.146 81.5094 103.045 83.2637C102.266 84.4987 101.22 84.8986 99.8799 84.2741C98.6379 83.6987 98.2029 82.4848 98.68 80.9902C99.6484 77.9869 102.069 76.8291 104.869 76.2186C105.704 76.0362 106.581 76.0502 107.079 76.0081L107.086 76.0151Z" fill="#54A0DE"/>
<path d="M106.7 102.189C108.483 102.196 110.055 103.823 110.041 105.641C110.027 107.451 108.42 109.086 106.665 109.072C104.883 109.058 103.325 107.437 103.332 105.606C103.339 103.767 104.904 102.182 106.7 102.189Z" fill="#3898E4"/>
<path d="M36.3761 70.177C36.3761 71.8002 35.5551 72.6119 33.9132 72.6119C32.1028 72.6119 31.1976 71.7254 31.1976 69.9524C31.1976 68.2777 32.0443 67.4404 33.7377 67.4404C35.4312 67.4404 36.3083 68.3549 36.3691 70.184L36.3761 70.177Z" fill="#FEFEFE"/>
<path d="M31.2046 90.7649C31.2046 89.0153 32.1753 88.1405 34.1166 88.1405C35.6276 88.1405 36.3831 89.1767 36.3831 91.249C36.3831 92.6244 35.3329 93.312 33.2325 93.312C31.8852 93.312 31.2116 92.463 31.2116 90.7649H31.2046Z" fill="#FEFEFE"/>
<path d="M33.8079 108.834C35.5247 108.834 36.3831 109.874 36.3831 111.956C36.3831 113.327 35.3282 114.01 33.2185 114.005C31.8759 114.005 31.2046 112.939 31.2046 110.805C31.2046 109.491 32.07 108.834 33.8009 108.834H33.8079Z" fill="#FEFEFE"/>
</g>
<defs>
<clipPath id="clip0_547_155">
<rect width="135" height="155.412" fill="white"/>
</clipPath>
</defs>
</svg>
