<svg width="150" height="150" viewBox="0 0 150 150" fill="none" xmlns="http://www.w3.org/2000/svg">
<g clip-path="url(#clip0_547_198)">
<path d="M70.6267 149.995C67.9827 148.83 66.9082 146.624 66.4352 143.921C66.122 142.135 65.5048 140.403 65.1383 138.623C64.9629 137.768 64.5713 137.377 63.7412 137.258C60.2295 136.747 56.8212 135.82 53.5037 134.582C52.7237 134.291 52.2663 134.463 51.74 135.024C50.1048 136.772 48.4414 138.498 46.7623 140.205C44.5976 142.404 42.5583 142.715 39.8611 141.236C38.2666 140.362 36.6877 139.45 35.1371 138.498C32.609 136.944 31.8572 134.99 32.6529 132.117C33.2919 129.814 33.9435 127.515 34.6515 125.231C34.9178 124.37 34.7549 123.812 34.0406 123.233C31.3685 121.062 28.9282 118.64 26.7573 115.965C26.1715 115.245 25.5982 115.11 24.7492 115.367C22.4624 116.065 20.1662 116.723 17.8606 117.356C15.0005 118.142 13.0551 117.387 11.4888 114.84C10.4801 113.202 9.50584 111.539 8.60364 109.841C7.33493 107.457 7.67012 105.361 9.59669 103.444C11.3698 101.683 13.1742 99.9541 15.0005 98.25C15.5738 97.7174 15.7085 97.2444 15.4234 96.48C14.2017 93.2127 13.2713 89.8576 12.7387 86.4023C12.5915 85.4531 12.1467 85.0114 11.1975 84.8047C8.86365 84.2972 6.54863 83.6895 4.23675 83.0911C1.3234 82.3362 -0.321234 79.9334 0.0484167 77.0264C0.399272 74.2884 2.51693 72.5154 5.4992 72.4997C8.9357 72.484 12.3753 72.4339 15.8087 72.5279C17.1369 72.5655 17.5536 72.2804 17.5442 70.8488C17.4721 60.0193 17.5035 49.1866 17.5066 38.3571C17.5066 33.0473 20.5296 30.0055 25.8018 29.9992C28.7183 29.9961 31.6348 29.9898 34.5481 29.9992C39.3379 30.018 42.4925 33.1381 42.4988 37.9123C42.5144 48.8984 42.5238 59.8846 42.4737 70.8738C42.4674 72.13 42.718 72.5686 44.0682 72.531C47.5016 72.4402 47.5016 72.5122 47.5016 69.1509C47.5016 48.9485 47.5016 28.743 47.5016 8.54065C47.5016 2.92383 50.44 0.00108319 56.0819 0.00108319C58.9451 0.00108319 61.8083 -0.0114474 64.6747 0.00421582C69.3392 0.0324096 72.4937 3.19011 72.4969 7.88906C72.5094 28.8213 72.5219 49.7536 72.4624 70.6859C72.4593 72.224 72.8603 72.5905 74.3483 72.5341C77.4997 72.4151 77.5028 72.4997 77.5028 69.342C77.5028 54.0328 77.5028 38.7236 77.5028 23.4175C77.5028 18.0075 80.5008 15.0064 85.8952 15.0033C88.8116 15.0033 91.7281 14.9907 94.6415 15.0033C99.3185 15.0283 102.489 18.1766 102.492 22.8568C102.504 38.8426 102.517 54.8285 102.467 70.8143C102.464 72.1676 102.755 72.5811 104.162 72.5341C107.495 72.4245 107.498 72.5028 107.498 69.2104C107.498 64.5773 107.482 59.9409 107.504 55.3078C107.523 50.731 110.702 47.5326 115.248 47.5012C118.424 47.4793 121.601 47.4793 124.777 47.5012C129.26 47.5326 132.465 50.7091 132.49 55.1762C132.521 60.4359 132.531 65.6956 132.471 70.9522C132.459 72.1363 132.706 72.5655 133.99 72.5247C137.164 72.4245 140.35 72.625 143.517 72.4558C146.747 72.2835 148.908 73.4959 149.998 76.5533V79.3664C149.497 81.813 147.846 83.0222 145.534 83.5673C143.407 84.0685 141.296 84.6355 139.169 85.1461C138.254 85.3654 137.753 85.8447 137.593 86.8127C137.07 89.9485 136.287 93.0279 135.228 96.0258C134.868 97.0502 135.074 97.7957 135.832 98.5476C137.311 100.014 138.981 101.267 140.416 102.783C142.815 105.32 143.132 107.504 141.452 110.558C140.6 112.109 139.82 113.7 138.799 115.154C136.916 117.832 135.112 118.502 131.939 117.685C129.871 117.155 127.816 116.576 125.786 115.921C124.618 115.545 123.816 115.849 123.064 116.776C121.191 119.085 119.095 121.187 116.783 123.054C115.846 123.812 115.574 124.605 115.937 125.773C116.651 128.057 117.328 130.356 117.886 132.684C118.346 134.61 117.908 136.352 116.441 137.674C114.061 139.826 111.279 141.38 108.234 142.351C106.248 142.984 104.594 141.975 103.125 140.703C101.505 139.3 100.255 137.552 98.7703 136.017C97.8148 135.03 96.9158 134.77 95.5844 135.278C92.859 136.318 90.0428 137.107 87.1545 137.546C85.8732 137.74 85.278 138.351 85.0211 139.604C84.6139 141.59 84.0406 143.542 83.5739 145.518C82.9943 147.959 81.7099 149.653 79.0629 149.985H78.4363C77.9445 149.66 77.3932 149.898 76.8763 149.826C76.3563 149.898 75.8049 149.66 75.3131 149.985H74.6866C74.1822 149.66 73.6215 149.898 73.0921 149.826C72.4812 149.907 71.839 149.65 71.2501 149.985H70.6236L70.6267 149.995Z" fill="#54A0DE"/>
<path d="M71.2549 149.997C71.8 149.414 72.4986 149.793 73.122 149.693C73.2285 149.759 73.2661 149.825 73.2316 149.893C73.1972 149.962 73.1627 149.997 73.1283 149.997H71.2518H71.2549Z" fill="#64AFEA"/>
<path d="M73.1283 149.997C73.1283 149.897 73.1283 149.793 73.1189 149.693C73.6514 149.753 74.2466 149.48 74.6883 149.997H73.1252H73.1283Z" fill="#4AA2E7"/>
<path d="M75.318 149.997C75.7597 149.48 76.358 149.756 76.8874 149.693C76.9845 149.762 77.0159 149.831 76.9814 149.9C76.947 149.966 76.9125 150 76.878 150H75.3148L75.318 149.997Z" fill="#4AA2E7"/>
<path d="M76.878 149.997C76.878 149.897 76.878 149.793 76.8843 149.693C77.4074 149.768 78.0058 149.461 78.4381 149.997H76.8749H76.878Z" fill="#65AFEA"/>
<path d="M5.0968 77.7959C5.54477 77.3323 6.03659 77.5109 6.47203 77.5109C13.8149 77.4983 21.1578 77.5391 28.5007 77.467C29.8384 77.4545 30.1704 77.9933 30.2863 79.1367C32.2286 98.4212 45.1006 113.796 63.84 118.539C78.554 122.264 92.0118 119.156 103.781 109.508C112.831 102.09 117.934 92.3815 119.635 80.8471C120.13 77.4983 120.14 77.5015 123.548 77.5015C130.111 77.4983 136.671 77.4858 143.234 77.4983C143.769 77.4983 144.358 77.2978 144.872 77.7301C144.675 78.3943 144.098 78.3473 143.628 78.4694C141.263 79.074 138.898 79.6849 136.53 80.277C134.259 80.844 132.921 82.3226 132.551 84.5781C131.944 88.284 130.944 91.8771 129.707 95.4139C128.908 97.6944 129.306 99.6805 131.126 101.378C132.918 103.045 134.609 104.818 136.389 106.497C136.981 107.055 137.141 107.496 136.639 108.211C136.076 109.016 135.509 109.862 135.161 110.773C134.472 112.578 133.319 112.643 131.712 112.092C129.701 111.4 127.621 110.908 125.581 110.297C123.373 109.639 121.546 110.316 120.118 111.986C117.605 114.918 114.889 117.627 111.96 120.143C110.347 121.528 109.652 123.304 110.281 125.462C110.992 127.906 111.619 130.374 112.39 132.799C112.687 133.739 112.449 134.224 111.644 134.653C110.451 135.289 109.266 135.947 108.129 136.677C107.449 137.112 107.042 136.94 106.538 136.411C104.812 134.603 103.02 132.858 101.303 131.041C99.6899 129.334 97.7884 128.908 95.6144 129.647C91.968 130.885 88.284 131.94 84.4747 132.567C82.2881 132.927 80.8471 134.271 80.2895 136.473C79.6786 138.892 79.0208 141.298 78.4726 143.729C78.2596 144.668 77.846 144.975 76.8906 144.997C71.916 145.126 71.9128 145.151 70.7162 140.414C70.359 139.005 70.0552 137.579 69.6448 136.185C69.1029 134.349 67.8999 133.006 66.0015 132.711C61.8696 132.075 57.9507 130.675 53.9472 129.585C51.8765 129.021 50.188 129.447 48.7188 131.029C47.0867 132.783 45.3449 134.431 43.7128 136.182C43.0518 136.89 42.5725 137.087 41.6296 136.533C37.2847 133.977 37.2659 134.017 38.71 129.127C39.064 127.931 39.3679 126.721 39.7218 125.528C40.3797 123.313 39.6623 121.506 37.9958 120.077C35.1043 117.596 32.4228 114.921 29.9449 112.026C28.5195 110.363 26.7214 109.627 24.5004 110.278C22.0569 110.996 19.5946 111.638 17.1637 112.396C16.3054 112.665 15.823 112.502 15.4126 111.719C14.6419 110.247 13.1539 108.793 13.1853 107.359C13.2166 105.977 15.2184 105.037 16.3273 103.878C17.264 102.901 18.2507 101.97 19.2156 101.021C20.7067 99.5521 21.0701 97.7634 20.4279 95.8493C19.1529 92.0494 18.0691 88.2151 17.3861 84.2554C17.029 82.191 15.6914 80.8377 13.6301 80.2989C11.218 79.6692 8.79958 79.0584 6.38118 78.46C5.89562 78.341 5.38187 78.3128 5.09993 77.7865L5.0968 77.7959Z" fill="#ACBDC9"/>
<path d="M75.0548 77.5015C87.8078 77.5015 100.561 77.5171 113.314 77.4764C114.564 77.4733 114.949 77.6268 114.795 79.0615C112.841 97.4282 98.8942 111.96 80.5557 114.629C59.3196 117.721 39.1673 102.976 35.6024 81.7368C35.4646 80.9161 35.474 80.064 35.2484 79.2714C34.7785 77.6174 35.5335 77.4639 36.9526 77.4701C49.6523 77.5203 62.3551 77.5015 75.0548 77.5015Z" fill="#FEFEFE"/>
<path d="M67.5052 39.7062C67.5052 50.1159 67.477 60.5257 67.5397 70.9323C67.5459 72.2731 67.1512 72.555 65.8856 72.5299C61.8289 72.4485 57.7658 72.4704 53.7091 72.5206C52.7442 72.5331 52.4842 72.2574 52.4873 71.2957C52.5124 50.1661 52.503 29.0364 52.5155 7.90678C52.5155 5.94575 53.4334 5.02788 55.3756 5.01222C58.3955 4.98716 61.4122 4.99343 64.4321 5.00909C66.6531 5.01849 67.5052 5.89249 67.5052 8.16992C67.5115 18.6831 67.5052 29.1962 67.5052 39.7093V39.7062Z" fill="#FEFEFE"/>
<path d="M97.5034 47.0147C97.5034 55.0248 97.4783 63.0381 97.5315 71.0483C97.5378 72.2199 97.2152 72.5488 96.0467 72.5269C91.9899 72.4579 87.9332 72.4611 83.8764 72.5269C82.7706 72.5425 82.4824 72.2011 82.4855 71.1203C82.5168 55.1 82.5043 39.0766 82.5106 23.0531C82.5106 20.8853 83.3752 20.0207 85.5242 20.0082C88.5409 19.9925 91.5576 19.9894 94.5743 20.0082C96.6168 20.0207 97.4971 20.9104 97.5002 22.9811C97.5127 30.9912 97.5034 39.0014 97.5065 47.0147H97.5034Z" fill="#D5E2E9"/>
<path d="M22.508 54.3763C22.508 49.0195 22.5049 43.6627 22.508 38.309C22.508 35.8186 23.2974 35.0135 25.7346 35.0072C28.648 35.001 31.5582 34.9947 34.4715 35.0072C36.633 35.0166 37.5008 35.8718 37.5039 38.0334C37.5133 49.0571 37.4851 60.0809 37.5384 71.1046C37.5446 72.3608 37.0779 72.5394 35.9971 72.5237C32.0469 72.4673 28.0935 72.4516 24.1432 72.53C22.8714 72.555 22.461 72.2418 22.4798 70.9104C22.555 65.4001 22.5111 59.8866 22.5111 54.3732L22.508 54.3763Z" fill="#D5E2E9"/>
<path d="M127.501 63.439C127.501 66.0391 127.473 68.6392 127.517 71.2393C127.533 72.107 127.414 72.5425 126.361 72.5268C122.098 72.4642 117.834 72.4861 113.571 72.5143C112.784 72.5205 112.48 72.3263 112.487 71.4774C112.521 66.0172 112.487 60.557 112.521 55.1C112.531 53.518 113.486 52.5469 115.046 52.5218C118.32 52.4717 121.596 52.4748 124.873 52.5187C126.58 52.5406 127.476 53.5305 127.495 55.3286C127.523 58.0321 127.501 60.7356 127.501 63.439Z" fill="#FEFEFE"/>
</g>
<defs>
<clipPath id="clip0_547_198">
<rect width="150" height="149.997" fill="white"/>
</clipPath>
</defs>
</svg>
