<svg width="135" height="145" viewBox="0 0 135 145" fill="none" xmlns="http://www.w3.org/2000/svg">
<g clip-path="url(#clip0_547_139)">
<path d="M124.977 144.6H38.6475C36.6324 144.208 34.6331 143.891 32.9829 142.431C30.4917 140.231 28.7992 137.618 28.4131 134.281C28.0428 131.086 28.0904 131.023 24.9328 130.652C19.1835 129.981 14.492 125.3 13.9525 119.519C13.6669 116.472 13.5559 116.551 10.4564 116.187C5.85487 115.647 2.55974 113.172 0.613336 108.951C0.174338 108.004 0.444084 106.899 -0.00549316 105.947V104.254C0.258964 103.768 0.126735 103.239 0.126735 102.731C0.132024 72.9002 0.132024 43.0695 0.126735 13.2334C0.126735 12.7257 0.258964 12.1968 -0.00549316 11.7102V9.73731C0.454662 8.69535 0.211362 7.46298 0.77201 6.46862C2.67081 3.08357 5.20431 0.518336 9.34042 0.169252C10.6468 0.0581805 11.9585 0 13.2755 0C40.1655 0.0105783 67.0608 0 93.9508 0.0158674C96.8386 0.0158674 99.6472 0.30677 101.974 2.39598C104.413 4.58568 106.047 7.18265 106.449 10.4619C106.84 13.646 106.814 13.6248 109.919 14.1008C115.382 14.9365 118.91 18.0413 120.587 23.2934C120.878 24.2031 120.857 25.1499 121.031 26.0755C121.38 27.9372 121.539 28.207 123.432 28.4027C125.231 28.5878 126.934 28.9792 128.563 29.7937C131.25 31.1372 133.159 33.2211 134.344 35.9238C135.032 37.4841 134.979 39.2454 134.979 40.9168C135.01 71.5726 134.994 102.223 135.005 132.879C135.005 136.47 134.101 139.617 131.213 142.035C129.843 143.182 128.447 144.113 126.627 144.288C126.077 144.341 125.506 144.372 124.987 144.6H124.977Z" fill="#54A0DE"/>
<path d="M0 11.7155C0.375529 12.2655 0.280324 12.8896 0.280324 13.4926C0.280324 43.1541 0.280324 72.8156 0.280324 102.472C0.280324 103.075 0.380818 103.704 0 104.249V11.7155Z" fill="#439DE6"/>
<path d="M81.9552 53.1347C97.4259 53.1347 112.897 53.1506 128.362 53.103C129.721 53.103 130.071 53.4415 130.065 54.8061C130.023 80.3844 130.034 105.963 130.034 131.546C130.034 136.867 127.14 139.792 121.872 139.792C95.1675 139.792 68.4573 139.792 41.7525 139.792C37.7221 139.792 34.8448 137.798 33.9986 134.36C33.7764 133.461 33.7447 132.498 33.7447 131.562C33.7341 105.984 33.7447 80.4055 33.7024 54.822C33.7024 53.4732 34.0303 53.0924 35.4055 53.0977C50.9238 53.1506 66.4369 53.1294 81.9552 53.1294V53.1347Z" fill="#D5E2E9"/>
<path d="M19.2472 72.3184C19.2472 57.4136 19.2472 42.5088 19.2472 27.604C19.2472 24.3512 20.3156 21.7119 23.3621 20.1622C24.5681 19.5487 25.8745 19.3847 27.1968 19.3847C53.9968 19.3794 80.7969 19.3689 107.597 19.3847C112.648 19.3847 115.621 22.4947 115.636 27.5353C115.636 28.7518 115.192 29.0374 114.071 29.0215C109.887 28.9686 105.703 29.0004 101.52 29.0004C81.8177 29.0004 62.1209 29.0004 42.4189 29.0004C40.1499 29.0004 37.902 29.1855 35.8286 30.2275C30.915 32.6975 28.884 36.8547 28.884 42.1809C28.884 48.4803 28.884 54.7796 28.884 61.0843C28.884 81.8177 28.884 102.556 28.884 123.29C28.884 124.743 28.147 125.428 26.6731 125.347C22.1033 125.099 19.3001 122.158 19.2683 117.451C19.226 111.008 19.2578 104.566 19.2578 98.1241C19.2578 89.5187 19.2578 80.9133 19.2578 72.3131L19.2472 72.3184Z" fill="#D5E2E9"/>
<path d="M4.81311 57.8368C4.81311 43.0272 4.81311 28.2176 4.81311 13.408C4.81311 7.80151 7.63751 4.96124 13.207 4.96124C39.8166 4.96124 66.4263 4.96124 93.036 4.96124C97.0663 4.96124 99.8431 6.84418 100.806 10.1975C100.859 10.3773 100.922 10.5572 100.954 10.7423C101.62 14.2913 101.388 14.5769 97.8332 14.5769C74.4182 14.5769 51.0085 14.5769 27.5934 14.5769C23.2616 14.5769 19.5804 15.9309 16.8829 19.4799C15 21.9605 14.4341 24.8114 14.4341 27.8368C14.4341 54.7796 14.4341 81.7172 14.4341 108.66C14.4341 111.109 14.4235 111.12 12.0275 110.903C7.43124 110.485 4.8184 107.645 4.81311 102.985C4.80253 87.9373 4.81311 72.895 4.81311 57.8473V57.8368Z" fill="#D5E2E9"/>
<path d="M81.8389 48.3322C66.5162 48.3322 51.1936 48.3322 35.8657 48.3322C33.75 48.3322 33.7447 48.3322 33.7553 46.1584C33.7606 44.2807 33.713 42.3925 33.824 40.5201C34.025 37.0346 36.622 34.353 40.0758 33.9722C40.9168 33.877 41.763 33.8241 42.604 33.8241C68.8329 33.8188 95.0617 33.8188 121.291 33.8241C122.893 33.8241 124.496 33.8717 125.966 34.6228C128.489 35.9133 129.833 38.0237 129.991 40.8111C130.113 42.969 130.002 45.1323 130.049 47.2955C130.071 48.2582 129.536 48.3428 128.796 48.3375C125.649 48.3216 122.496 48.3375 119.349 48.3375C106.846 48.3375 94.3424 48.3375 81.8389 48.3375V48.3322Z" fill="white"/>
<path d="M57.7785 41.049C57.8156 42.2867 56.7736 43.4132 55.5254 43.482C54.2137 43.5613 53.0606 42.4876 53.0342 41.1654C53.0077 39.8378 53.9492 38.8276 55.2662 38.7694C56.6572 38.7059 57.7415 39.6897 57.7785 41.049Z" fill="#3898E4"/>
<path d="M43.3022 41.1389C43.2652 42.4295 42.2073 43.4608 40.9379 43.445C39.5998 43.4291 38.5631 42.3237 38.616 40.9644C38.6689 39.6474 39.6791 38.7271 41.0331 38.7641C42.3554 38.8011 43.3392 39.8325 43.3022 41.1336V41.1389Z" fill="#3798E4"/>
<path d="M50.5113 41.0437C50.5271 42.3554 49.5328 43.3974 48.2422 43.4291C46.9094 43.4609 45.7669 42.3554 45.7934 41.0543C45.8198 39.7532 46.8406 38.7641 48.1629 38.7641C49.5063 38.7641 50.5007 39.7267 50.5113 41.0437Z" fill="#3798E4"/>
<path d="M74.4182 108.999H118.017C119.307 108.999 120.354 110.31 120.354 111.929C120.354 113.547 119.307 114.859 118.017 114.859H74.4182C73.1276 114.859 72.0804 113.547 72.0804 111.929C72.0804 110.31 73.1276 108.999 74.4182 108.999Z" fill="#ACBDC9"/>
<path d="M74.4182 94.6227H118.017C119.307 94.6227 120.354 95.9345 120.354 97.5529C120.354 99.1714 119.307 100.483 118.017 100.483H74.4182C73.1276 100.483 72.0804 99.1714 72.0804 97.5529C72.0804 95.9345 73.1276 94.6227 74.4182 94.6227Z" fill="#ACBDC9"/>
<path d="M74.4182 80.2415H118.017C119.307 80.2415 120.354 81.5532 120.354 83.1717C120.354 84.7902 119.307 86.1019 118.017 86.1019H74.4182C73.1276 86.1019 72.0804 84.7902 72.0804 83.1717C72.0804 81.5532 73.1276 80.2415 74.4182 80.2415Z" fill="#ACBDC9"/>
<path d="M63.8188 71.7472H43.1435C41.9371 71.7472 40.9591 72.7252 40.9591 73.9316V121.169C40.9591 122.375 41.9371 123.353 43.1435 123.353H63.8188C65.0252 123.353 66.0032 122.375 66.0032 121.169V73.9316C66.0032 72.7252 65.0252 71.7472 63.8188 71.7472Z" fill="white"/>
</g>
<defs>
<clipPath id="clip0_547_139">
<rect width="135" height="144.6" fill="white"/>
</clipPath>
</defs>
</svg>
