<svg width="145" height="164" viewBox="0 0 145 164" fill="none" xmlns="http://www.w3.org/2000/svg">
<g clip-path="url(#clip0_547_172)">
<path d="M0.111353 153.56C0.12525 153.463 0.139147 153.365 0.16694 153.268C0.417084 152.017 1.04244 150.933 1.54273 149.78C2.15419 148.376 2.76566 146.973 3.39102 145.569C4.61394 142.762 5.85076 139.955 7.07369 137.162C7.11538 137.078 7.14317 136.995 7.18486 136.911C9.28329 132.117 11.3261 127.323 13.4801 122.556C13.911 121.597 13.7859 120.958 13.2022 120.138C5.62841 109.507 2.19588 97.625 2.65448 84.6036C3.55778 58.7971 23.472 35.9646 48.8616 31.5732C64.7318 28.8355 79.2263 32.0735 92.3588 41.3844C93.3733 42.107 93.8041 41.9124 94.888 40.5228C96.7919 38.1047 99.0154 35.9646 101.406 34.0468C102.24 33.3798 102.629 32.7405 102.643 31.7816C102.67 29.5303 102.837 27.279 102.851 25.0416C102.851 23.8326 103.212 22.8876 104.074 22.026C111.05 15.0776 118.012 8.10135 124.961 1.12512C125.92 0.152336 127.004 -0.320158 128.296 0.277408C129.575 0.874973 129.964 1.98672 129.88 3.36251C129.63 7.12857 129.436 10.8807 129.158 14.6468C129.088 15.6751 129.297 15.9809 130.436 15.8836C134.133 15.5501 137.843 15.3972 141.54 15.1332C142.957 15.0359 144.111 15.4111 144.75 16.7591C145.389 18.0932 144.82 19.1633 143.888 20.0944C136.926 27.0706 129.964 34.019 123.015 40.9953C122.251 41.7596 121.403 42.1348 120.319 42.1487C117.957 42.1904 115.594 42.3293 113.232 42.371C112.273 42.3849 111.634 42.7324 110.939 43.7468C109.369 46.0398 107.451 48.0827 105.158 49.6669C103.143 51.0427 103.143 51.4596 103.893 52.4185C112.509 63.4526 116.567 76.0015 115.97 89.9539C115.497 100.891 112.037 110.883 105.672 119.818C104.894 120.916 104.797 121.764 105.339 122.987C109.299 131.923 113.218 140.886 117.109 149.849C118.61 153.296 118.124 157.521 115.858 160.772C113.093 164.775 104.338 162.982 99.1683 162.982C99.1683 162.982 99.1683 162.982 99.1544 162.982C95.6107 162.551 93.7068 160.272 92.4839 157.145C90.2882 151.545 88.023 145.972 85.7856 140.372C85.0352 138.482 84.8684 138.454 83.0896 139.26C77.1556 141.956 70.9715 143.61 64.4539 144.235C54.2814 145.222 44.6508 143.346 35.4094 139.177C33.8113 138.454 33.6028 138.496 32.9358 140.191C30.6289 145.931 28.322 151.67 26.0568 157.423C25.4176 159.035 24.3892 160.314 23.1802 161.523C22.0406 162.648 20.5537 162.621 19.1779 162.968C19.1779 162.968 19.164 162.968 19.1501 162.968H6.32326C6.32326 162.968 6.30936 162.968 6.29546 162.968C4.46108 162.523 2.65448 161.703 1.50104 160.161C0.778403 159.188 0.444878 158.063 0.194734 156.895C-0.0276159 155.797 -0.0693066 154.658 0.0974559 153.56H0.111353Z" fill="#3797E4"/>
<path d="M58.9783 139.038C46.8047 139.038 35.8817 135.258 26.4597 127.532C15.5089 118.554 9.17194 106.895 7.75446 92.8172C5.01677 65.5377 23.5413 41.9547 49.056 36.9935C63.1474 34.2558 76.1688 37.0491 88.134 44.9564C89.2318 45.679 89.4681 46.1376 88.3702 47.1104C86.7304 48.5696 85.2018 50.1538 83.7148 51.752C83.0061 52.5163 82.4919 52.5719 81.6025 52.0021C74.39 47.4022 66.4688 45.3038 57.9222 45.4567C38.3137 45.8041 20.9287 60.8405 17.7463 80.1989C14.0081 103.031 28.1134 123.793 50.7097 128.727C73.3477 133.674 96.6389 117.915 100.502 95.0685C102.462 83.4785 100.127 72.8335 93.387 63.1891C92.7477 62.2719 92.7061 61.7438 93.5538 60.9656C95.2492 59.4091 96.8751 57.7554 98.4455 56.0739C99.1403 55.3374 99.4599 55.4207 100.058 56.199C105.672 63.5643 109.146 71.8468 110.23 81.0188C111.856 94.8601 108.618 107.534 100.169 118.651C91.497 130.075 79.9348 136.745 65.7044 138.705C64.5927 138.858 63.467 138.969 62.3553 139.024C61.2296 139.08 60.104 139.024 58.9922 139.024L58.9783 139.038Z" fill="#D5E2E9"/>
<path d="M63.9256 123.376C61.2296 123.571 58.5058 123.404 55.8237 123.001C52.4468 122.487 49.1254 121.556 45.9431 120.305C38.6611 117.456 32.2407 112.481 28.1134 105.797C25.5563 101.656 23.9304 96.9863 23.2772 92.1641C20.609 72.6945 33.7972 54.9065 52.6969 51.474C61.5214 49.8759 69.7623 51.4045 77.5584 55.7404C78.5312 56.2823 78.8092 56.6853 77.8781 57.5608C76.1549 59.1729 74.4872 60.8544 72.8613 62.5776C72.1665 63.328 71.5828 63.3697 70.6656 62.9389C59.6871 57.8666 47.3883 60.2707 39.217 69.1369C35.0479 73.6534 32.7688 79.0315 32.2407 85.2156C31.0456 99.1542 40.6622 111.856 54.851 114.191C69.0536 116.525 82.5613 107.395 85.6603 93.2202C87.1751 86.3135 86.0494 79.8375 82.5752 73.7368C82.1305 72.9586 82.0055 72.4305 82.7698 71.7357C84.4652 70.1792 86.0911 68.5394 87.6615 66.844C88.4536 65.9962 88.8844 66.0379 89.5098 67.0107C93.0952 72.5 95.1658 78.4478 95.4854 85.0211C95.9579 94.7628 92.9145 104.129 86.3274 111.397C82.2695 115.886 77.1554 119.763 71.416 121.82C68.9841 122.695 66.4548 123.182 63.8978 123.363L63.9256 123.376Z" fill="#FEFEFE"/>
<path d="M67.8029 67.5805C65.3292 70.068 62.9529 72.4444 60.5904 74.8346C60.1179 75.321 59.5481 75.1543 59.0061 75.1682C52.2801 75.321 46.9992 80.9493 47.166 87.7587C47.3328 94.4014 53.0722 99.6962 59.8817 99.4738C66.3854 99.2515 71.6662 93.5259 71.4577 86.9527C71.4577 86.8415 71.4855 86.7165 71.4438 86.6192C70.3321 84.0483 71.8052 82.4918 73.5701 80.9632C74.7096 79.9765 75.8075 78.8925 76.7802 77.7391C77.7808 76.5718 78.2394 76.8775 78.8231 78.1004C84.1734 89.1484 78.9482 102.684 67.511 107.312C52.5719 113.357 36.6322 101.767 37.7578 85.6881C38.7445 71.5272 53.364 62.1051 66.6494 67.0663C66.9968 67.1914 67.3304 67.372 67.8168 67.5944L67.8029 67.5805Z" fill="#D5E2E9"/>
<path d="M17.8297 126.045C21.1371 129.255 24.3751 132.187 28.0439 134.591C28.9888 135.203 28.3218 135.911 28.0856 136.509C25.7787 142.346 23.4301 148.182 21.0954 154.005C20.9009 154.478 20.7063 154.936 20.5257 155.409C19.9837 156.924 18.9553 157.618 17.3155 157.577C14.4527 157.521 11.59 157.577 8.72721 157.563C6.03121 157.535 4.83608 155.77 5.90614 153.283C8.62993 146.946 11.4232 140.636 14.1887 134.313C15.3699 131.603 16.565 128.907 17.8158 126.045H17.8297Z" fill="#D5E2E9"/>
<path d="M105.547 157.577C104.032 157.577 102.517 157.577 101.003 157.577C99.6684 157.577 98.7373 156.979 98.2509 155.756C95.5966 149.141 92.984 142.526 90.3019 135.925C89.9962 135.161 90.2324 134.786 90.8161 134.411C94.1097 132.243 97.0975 129.686 99.863 126.892C100.627 126.114 100.933 126.239 101.336 127.17C104.518 134.536 107.742 141.873 110.953 149.225C111.564 150.614 112.19 151.99 112.759 153.394C113.718 155.798 112.537 157.521 109.924 157.563C108.465 157.591 107.006 157.563 105.547 157.563V157.577Z" fill="#D5E2E9"/>
<path d="M123.96 10.0753C123.793 12.799 123.585 15.37 123.488 17.9409C123.376 20.5952 124.321 21.4846 126.948 21.4846C129.533 21.4846 132.076 20.9009 134.688 21.1511C134.772 21.8459 134.16 22.0961 133.799 22.4574C129.533 26.7654 125.155 30.9762 120.986 35.3815C119.666 36.7712 118.151 36.8128 116.581 36.9101C114.121 37.0491 111.634 36.9657 109.174 37.0491C108.215 37.0769 107.881 36.7573 107.923 35.7984C108.062 32.5465 108.159 29.2946 108.243 26.0428C108.257 25.5564 108.465 25.1951 108.799 24.8615C113.69 19.9837 118.582 15.092 123.474 10.2142C123.543 10.1447 123.668 10.1586 123.974 10.0753H123.96Z" fill="#D5E2E9"/>
<path d="M104.352 42.8024C104.046 43.0108 103.726 43.1637 103.49 43.4C90.5242 56.3518 77.5584 69.3176 64.5927 82.2834C63.7171 83.1589 62.258 84.0205 61.5909 83.3813C60.9934 82.8254 61.8411 81.255 62.7166 80.3795C75.6824 67.4276 88.6482 54.4619 101.614 41.51C101.892 41.232 102.142 40.5511 102.642 40.9402C103.24 41.3988 103.671 42.052 104.352 42.8024Z" fill="#FEFEFE"/>
<path d="M65.8295 88.2035C65.4682 91.4414 63.203 93.7205 59.9789 94.0679C56.9494 94.3876 53.8921 92.4698 52.961 89.6626C51.9048 86.4802 53.0166 83.4507 56.0322 81.6163C55.782 83.4368 55.0316 84.9794 54.5313 86.5775C54.1561 87.8143 53.906 89.0373 54.9065 90.0517C55.9488 91.1218 57.2134 90.9272 58.5058 90.4825C60.8961 89.6626 63.3003 88.9261 65.6905 88.1479C65.7322 88.1479 65.7878 88.1896 65.8295 88.2173V88.2035Z" fill="#D5E2E9"/>
</g>
<defs>
<clipPath id="clip0_547_172">
<rect width="145" height="163.372" fill="white"/>
</clipPath>
</defs>
</svg>
