<svg width="140" height="113" viewBox="0 0 140 113" fill="none" xmlns="http://www.w3.org/2000/svg">
<g clip-path="url(#clip0_547_184)">
<path d="M122.485 111.942C121.388 111.707 120.598 111.001 119.831 110.24C114.573 104.982 109.164 99.8696 104.108 94.4271C101.745 91.885 99.0409 91.0787 95.8605 90.9611C95.1326 90.9331 94.4047 90.9387 93.6711 90.9387C74.667 90.9387 55.6629 90.8883 36.6532 90.9779C32.7505 90.9947 29.8164 89.8468 28.215 85.8433C26.0593 88.0102 24.0211 90.0596 21.9829 92.1089C21.1934 92.8985 20.4263 93.716 19.5976 94.4663C18.097 95.8157 16.3668 96.2189 14.4798 95.3958C12.5929 94.5671 11.6802 93.044 11.6746 91.0171C11.6522 86.0169 11.641 81.0111 11.6914 76.0109C11.7026 74.975 11.5178 74.4935 10.3531 74.6223C9.29487 74.7398 8.2142 74.667 7.15033 74.6558C2.97883 74.5887 0.0167841 71.6266 0.0111848 67.4271C-0.00561318 54.9966 -1.38511e-05 42.5605 -1.38511e-05 30.1244C-1.38511e-05 22.5933 -0.00561318 15.0678 -1.38511e-05 7.5367C0.0111848 2.90605 2.92284 0 7.56468 0C39.8392 0 72.1137 0 104.388 0C109.142 0 111.987 2.86686 111.998 7.63188C111.998 10.1068 112.054 12.5873 111.975 15.0622C111.942 16.1093 112.278 16.35 113.286 16.3388C119.361 16.294 125.436 16.3164 131.511 16.3164C136.456 16.3164 138.331 17.6043 140 22.1453V85.3898C139.02 89.5221 136.702 91.3139 132.34 91.3586C128.325 91.3978 128.785 90.8491 128.762 94.9198C128.74 98.8001 128.757 102.68 128.762 106.561C128.762 107.541 128.65 108.493 128.269 109.405C127.62 110.962 126.601 112.009 124.803 112.054C124.031 111.998 123.241 112.177 122.48 111.936L122.485 111.942Z" fill="#54A0DE"/>
<path d="M124.854 111.942C124.826 112.031 124.815 112.121 124.831 112.211H122.496C122.513 112.121 122.508 112.031 122.474 111.942C123.264 111.942 124.059 111.942 124.848 111.942H124.854Z" fill="#95C8F0"/>
<path d="M123.667 107.115C122.956 106.919 122.676 106.438 122.317 106.074C116.976 100.766 111.544 95.5413 106.37 90.0764C104.254 87.8367 101.74 87.036 98.9401 86.588C96.9243 86.2633 94.8806 86.2689 92.8424 86.2689C73.9391 86.2801 55.0302 86.2745 36.1268 86.2745C33.2936 86.2745 32.6721 85.6641 32.6721 82.8981C32.6721 63.3732 32.6721 43.8483 32.6721 24.3291C32.6721 21.6302 33.316 20.9863 36.0149 20.9863C67.9926 20.9863 99.9704 20.9863 131.954 20.9863C134.725 20.9863 135.341 21.6078 135.341 24.4299C135.341 43.9547 135.341 63.4796 135.341 82.9988C135.341 85.6753 134.692 86.3025 131.965 86.2913C130.117 86.2801 128.269 86.2633 126.427 86.2745C124.523 86.2857 123.689 87.1199 123.684 89.0461C123.672 94.5839 123.684 100.122 123.684 105.654C123.684 106.118 123.684 106.583 123.684 107.11L123.667 107.115Z" fill="#D5E2E9"/>
<path d="M16.3388 91.2131C16.3388 88.671 16.3388 86.5992 16.3388 84.5219C16.3388 80.5855 16.35 76.6548 16.3332 72.7185C16.322 70.8147 15.4653 69.9636 13.5671 69.9524C11.5234 69.9412 9.48523 69.986 7.44147 69.9748C5.5265 69.9636 4.6754 69.1349 4.6754 67.2255C4.6698 47.3087 4.6698 27.3919 4.6754 7.48071C4.6754 5.48735 5.5097 4.66985 7.53106 4.66985C39.856 4.66985 72.1809 4.66985 104.506 4.66985C106.505 4.66985 107.322 5.49855 107.333 7.5143C107.35 9.98921 107.261 12.4697 107.367 14.9446C107.417 16.1653 106.964 16.3444 105.883 16.3444C82.4053 16.3164 58.9273 16.322 35.4493 16.3276C31.6754 16.3276 28.8925 18.4666 28.1534 21.955C27.9966 22.7053 28.0078 23.5004 28.0078 24.2731C28.0022 42.1461 27.991 60.0248 28.0302 77.8979C28.0302 79.0737 27.6774 79.8688 26.8543 80.6751C23.422 84.0403 20.0568 87.4783 16.3388 91.2131Z" fill="#FEFEFE"/>
<path d="M72.3377 69.7116C72.3377 71.6546 72.3545 73.5976 72.3377 75.5405C72.3041 79.0065 69.8572 81.571 66.576 81.6046C63.3956 81.6382 60.6967 78.8441 60.6799 75.451C60.6575 71.5202 60.6575 67.5839 60.6911 63.6532C60.6967 62.8861 60.5119 62.4381 59.7728 62.0686C57.6787 61.0215 56.486 59.2353 56.0829 56.962C55.9653 56.2845 55.7973 56.0325 55.0638 55.8925C51.2002 55.1478 49.0389 52.4321 48.9997 48.5126C48.9773 46.508 48.9549 44.5259 50.1868 42.7845C51.3962 41.0711 53.0256 40.0016 55.0918 39.6936C55.7357 39.5985 55.9317 39.4025 56.066 38.753C56.8668 34.7718 59.504 32.6553 63.5524 32.6441C65.5457 32.6441 67.5391 32.6777 69.5268 32.6329C71.9233 32.5825 73.9167 33.4392 75.3949 35.2982C75.9213 35.9589 76.3804 36.0149 77.1083 35.8413C83.7043 34.2455 90.3003 32.6721 96.902 31.1099C97.6859 30.9251 98.089 30.5443 98.3466 29.7324C99.2313 26.9328 101.913 25.2642 104.635 25.6953C107.619 26.1657 109.618 28.4782 109.663 31.5578C109.685 33.1088 109.741 34.671 109.64 36.2165C109.573 37.2467 109.976 37.5995 110.906 37.9187C119.529 40.8303 121.797 51.5194 115.105 57.6451C113.874 58.7762 112.44 59.6273 110.822 60.0248C109.853 60.26 109.612 60.7359 109.652 61.6486C109.713 63.25 109.696 64.8514 109.663 66.4528C109.601 69.5045 107.535 71.8338 104.562 72.2481C101.824 72.6345 99.1697 70.9379 98.3298 68.1214C98.0554 67.1919 97.5403 66.8 96.6948 66.52C90.194 64.3923 83.6987 62.2477 77.2203 60.0584C76.302 59.7448 75.6805 59.8064 75.115 60.6295C74.8462 61.0215 74.4654 61.4526 74.0455 61.5982C72.3545 62.1637 72.2033 63.39 72.3097 64.9074C72.4217 66.5032 72.3321 68.1102 72.3321 69.7116H72.3377Z" fill="#3797E4"/>
<path d="M98.005 62.0573C92.1201 60.1144 86.4536 58.2554 80.7983 56.3684C79.5608 55.9541 77.9202 55.9429 77.2203 54.9686C76.5204 53.9943 77.0243 52.4321 77.0131 51.133C76.9851 47.975 77.0243 44.817 76.9907 41.6646C76.9795 40.9031 77.1979 40.5783 77.9706 40.3991C84.2978 38.9153 90.6139 37.3811 96.9355 35.8637C97.4787 35.7349 98.0274 35.4549 98.0274 36.5076C97.9938 44.6658 98.0106 52.8296 98.0106 60.9879V62.0629L98.005 62.0573Z" fill="#FEFEFE"/>
<path d="M60.6687 47.8575C60.6687 45.237 60.6519 42.6165 60.6687 39.996C60.6855 38.165 61.5142 37.3307 63.3452 37.3139C65.4337 37.2915 67.5223 37.2971 69.6109 37.3139C71.453 37.3307 72.3209 38.1538 72.3265 39.9568C72.3433 45.1978 72.3489 50.4387 72.3265 55.6797C72.3209 57.4155 71.4586 58.2666 69.7228 58.289C67.5895 58.317 65.4505 58.317 63.3116 58.289C61.5086 58.2666 60.6855 57.4155 60.6687 55.5733C60.6519 53.0032 60.6687 50.4275 60.6687 47.8575Z" fill="#D5E2E9"/>
<path d="M105.004 49.0109C105.004 54.4479 105.004 59.8792 105.004 65.3162C105.004 65.7025 105.021 66.0945 104.987 66.4808C104.926 67.1471 104.545 67.5727 103.868 67.5895C103.19 67.6063 102.787 67.2031 102.697 66.5368C102.652 66.2009 102.675 65.8593 102.675 65.5177C102.675 54.5039 102.675 43.49 102.675 32.4761C102.675 32.1849 102.675 31.8938 102.68 31.6026C102.703 30.8691 103.061 30.3763 103.812 30.354C104.562 30.3372 104.954 30.8075 104.999 31.5466C105.021 31.8826 105.01 32.2241 105.01 32.5657C105.01 38.0474 105.01 43.5292 105.01 49.0165L105.004 49.0109Z" fill="#D5E2E9"/>
<path d="M109.668 48.9549C109.668 47.068 109.68 45.181 109.663 43.294C109.657 42.6109 109.842 42.4485 110.508 42.7341C112.625 43.6412 114.333 46.3904 114.333 48.9773C114.333 51.553 112.597 54.3135 110.492 55.2038C109.78 55.5061 109.657 55.2542 109.663 54.6158C109.68 52.7289 109.668 50.8419 109.668 48.9549Z" fill="#FEFEFE"/>
<path d="M65.3386 69.7284C65.3386 67.7855 65.389 65.8425 65.3162 63.8995C65.2826 62.9252 65.8033 62.9364 66.492 62.9476C67.1472 62.9588 67.7015 62.8748 67.6903 63.8771C67.6399 67.7631 67.6679 71.649 67.6735 75.5349C67.6735 76.33 67.3543 76.9012 66.52 76.9068C65.6857 76.9124 65.3442 76.358 65.3442 75.5573C65.3442 73.6144 65.3442 71.6714 65.3442 69.7284H65.3386Z" fill="#ACBDC9"/>
<path d="M56.0045 47.8183C56.0045 48.6862 55.9709 49.5597 56.0157 50.4276C56.0605 51.3626 55.6461 51.4018 54.9854 51.0267C54.739 50.8867 54.487 50.7243 54.2911 50.5171C53.3672 49.5261 53.3896 46.0153 54.3191 45.041C54.6942 44.6491 55.187 44.2459 55.7021 44.3915C56.3236 44.5595 55.9653 45.2146 55.9989 45.6457C56.0549 46.368 56.0157 47.096 56.0157 47.8183H56.0045Z" fill="#ACBDC9"/>
</g>
<defs>
<clipPath id="clip0_547_184">
<rect width="140" height="112.211" fill="white"/>
</clipPath>
</defs>
</svg>
